<?xml version="1.0" standalone="no"?>
<!DOCTYPE svg PUBLIC "-//W3C//DTD SVG 20010904//EN"
 "http://www.w3.org/TR/2001/REC-SVG-20010904/DTD/svg10.dtd">
<svg version="1.0" xmlns="http://www.w3.org/2000/svg"
 width="1024.000000pt" height="1024.000000pt" viewBox="0 0 1024.000000 1024.000000"
 preserveAspectRatio="xMidYMid meet">

<g transform="translate(0.000000,1024.000000) scale(0.100000,-0.100000)"
fill="#000000" stroke="none">
<path d="M2280 4945 l0 -2985 2895 0 2895 0 -2 2983 -3 2982 -2892 2 -2893 3
0 -2985z m4090 2387 c0 -5 -71 -75 -157 -157 -87 -81 -216 -205 -288 -274 -71
-70 -240 -230 -375 -356 -134 -127 -296 -279 -358 -340 -62 -60 -116 -111
-120 -112 -4 -2 -7 61 -7 140 l0 142 -1092 3 -1093 2 0 475 0 475 1723 3 c947
1 1732 3 1745 5 12 1 22 -2 22 -6z m1063 -2 l27 0 0 -409 0 -409 -54 -49 c-29
-26 -181 -167 -337 -313 -264 -246 -793 -736 -1478 -1369 -521 -481 -765 -705
-831 -767 -115 -107 -609 -564 -800 -739 -101 -93 -232 -215 -290 -270 -116
-111 -367 -346 -433 -406 l-42 -39 -157 0 -158 0 0 408 0 407 283 266 c384
361 557 523 862 804 143 132 323 298 400 369 77 72 190 175 250 231 155 142
1890 1743 2118 1955 104 96 229 211 277 255 l88 80 124 -2 c67 -1 135 -2 151
-3z m-2765 -1550 c-4 -12 -552 -534 -1118 -1065 -58 -54 -152 -144 -211 -199
-58 -56 -143 -137 -190 -180 -46 -44 -126 -121 -176 -170 l-93 -91 0 858 0
857 896 0 c587 0 895 -3 892 -10z m2792 -1435 l0 -285 -307 0 -307 0 115 108
c254 240 492 462 495 462 2 0 4 -128 4 -285z m-2120 -680 l0 -185 1060 0 1060
0 0 -460 0 -460 -1750 0 -1749 0 87 83 c176 168 891 844 1216 1149 34 31 64
57 69 58 4 0 7 -83 7 -185z"/>
</g>
</svg>
